<svg xmlns="http://www.w3.org/2000/svg" version="1.1" xmlns:xlink="http://www.w3.org/1999/xlink" viewBox="0 0 200 200"><rect width="200" height="200" fill="url('#gradient')"></rect><defs><linearGradient id="gradient" gradientTransform="rotate(45 0.5 0.5)"><stop offset="0%" stop-color="#ffffff"></stop><stop offset="100%" stop-color="#ffffff"></stop></linearGradient></defs><g><g fill="#1b3855" transform="matrix(6.435754189944134,0,0,6.435754189944134,8.677192178684905,146.40370197935476)" stroke="#0e5278" stroke-width="0.2"><path d="M10.11-14.22L12.09-5.30L13.72-14.22L17.12-14.22L14.10 0L10.55 0L8.64-8.11L6.78 0L3.23 0L0.21-14.22L3.61-14.22L5.24-5.30L7.20-14.22L10.11-14.22ZM28.17-2.54L28.17 0L18.25 0L18.25-2.15L22.82-6.95Q24.51-8.88 24.51-10.01L24.51-10.01Q24.51-10.93 24.11-11.41Q23.71-11.88 22.95-11.88L22.95-11.88Q22.20-11.88 21.73-11.25Q21.26-10.61 21.26-9.65L21.26-9.65L17.96-9.65Q17.96-10.96 18.61-12.07Q19.27-13.17 20.43-13.80Q21.59-14.42 23.03-14.42L23.03-14.42Q25.33-14.42 26.58-13.36Q27.82-12.29 27.82-10.30L27.82-10.30Q27.82-9.46 27.51-8.67Q27.20-7.87 26.54-7.00Q25.88-6.12 24.41-4.66L24.41-4.66L22.58-2.54L28.17-2.54Z"></path></g></g></svg>